<svg width="56" height="57" viewBox="0 0 56 57" fill="none" xmlns="http://www.w3.org/2000/svg">
<path d="M43.9997 7.125H12.0003C10.6745 7.12626 9.40341 7.66289 8.46593 8.61711C7.52845 9.57132 7.00124 10.8652 7 12.2146V44.7854C7 47.595 9.24233 49.875 12.0003 49.875H43.9997C45.3255 49.8737 46.5966 49.3371 47.5341 48.3829C48.4715 47.4287 48.9988 46.1348 49 44.7854V12.2146C48.9988 10.8652 48.4715 9.57132 47.5341 8.61711C46.5966 7.66289 45.3255 7.12626 43.9997 7.125ZM40.005 25.7759C38.5332 25.9213 37.0524 25.6144 35.7537 24.8948C34.6583 24.2936 33.7278 23.4233 33.047 22.363V34.105C33.047 35.8214 32.547 37.4992 31.6101 38.9264C30.6733 40.3535 29.3417 41.4658 27.7838 42.1227C26.2258 42.7795 24.5115 42.9514 22.8577 42.6165C21.2038 42.2816 19.6846 41.4551 18.4922 40.2414C17.2998 39.0278 16.4878 37.4815 16.1588 35.798C15.8298 34.1146 15.9987 32.3697 16.644 30.784C17.2893 29.1982 18.3821 27.8429 19.7842 26.8893C21.1863 25.9357 22.8347 25.4268 24.521 25.4268C24.6983 25.4268 24.871 25.4434 25.046 25.4529V29.7302C24.871 29.7089 24.7007 29.6756 24.521 29.6756C23.3669 29.6756 22.26 30.1423 21.4439 30.973C20.6278 31.8036 20.1693 32.9303 20.1693 34.105C20.1693 35.2797 20.6278 36.4064 21.4439 37.237C22.26 38.0677 23.3669 38.5344 24.521 38.5344C26.9243 38.5344 29.0477 36.6082 29.0477 34.162L29.0897 14.2168H33.11C33.294 15.9943 34.0857 17.6495 35.3469 18.8932C36.608 20.1369 38.2584 20.8901 40.0097 21.0211V25.7759" fill="#808080" fill-opacity="0.74"/>
</svg>
