<svg width="55" height="55" viewBox="0 0 55 55" fill="none" xmlns="http://www.w3.org/2000/svg">
<path d="M27.5 21.8166C26.376 21.8166 25.2772 22.1499 24.3425 22.7744C23.4079 23.3989 22.6795 24.2865 22.2493 25.325C21.8192 26.3635 21.7066 27.5062 21.9259 28.6087C22.1452 29.7111 22.6865 30.7238 23.4813 31.5186C24.2761 32.3135 25.2888 32.8548 26.3913 33.074C27.4937 33.2933 28.6365 33.1808 29.675 32.7506C30.7134 32.3205 31.6011 31.592 32.2256 30.6574C32.8501 29.7228 33.1834 28.624 33.1834 27.4999C33.1834 26.7536 33.0364 26.0145 32.7508 25.325C32.4651 24.6355 32.0465 24.0089 31.5188 23.4812C30.991 22.9534 30.3645 22.5348 29.675 22.2492C28.9854 21.9636 28.2464 21.8166 27.5 21.8166ZM50.2563 16.202C50.2457 14.4321 49.9198 12.6783 49.2938 11.0228C48.8338 9.81114 48.1221 8.71076 47.2057 7.7943C46.2892 6.87784 45.1888 6.16615 43.9771 5.70617C42.3216 5.08019 40.5678 4.75427 38.798 4.74367C35.8417 4.58325 34.9709 4.58325 27.5 4.58325C20.0292 4.58325 19.1584 4.58325 16.2021 4.74367C14.4323 4.75427 12.6785 5.08019 11.023 5.70617C9.81126 6.16615 8.71088 6.87784 7.79442 7.7943C6.87797 8.71076 6.16627 9.81114 5.70629 11.0228C5.08032 12.6783 4.75439 14.4321 4.74379 16.202C4.58337 19.1583 4.58337 20.0291 4.58337 27.4999C4.58337 34.9707 4.58337 35.8416 4.74379 38.7978C4.77021 40.5736 5.0956 42.3322 5.70629 43.9999C6.16165 45.2074 6.8731 46.3019 7.79171 47.2082C8.7047 48.1296 9.80731 48.8412 11.023 49.2937C12.6785 49.9196 14.4323 50.2456 16.2021 50.2562C19.1584 50.4166 20.0292 50.4166 27.5 50.4166C34.9709 50.4166 35.8417 50.4166 38.798 50.2562C40.5678 50.2456 42.3216 49.9196 43.9771 49.2937C45.1928 48.8412 46.2954 48.1296 47.2084 47.2082C48.127 46.3019 48.8384 45.2074 49.2938 43.9999C49.9177 42.3359 50.2436 40.5749 50.2563 38.7978C50.4167 35.8416 50.4167 34.9707 50.4167 27.4999C50.4167 20.0291 50.4167 19.1583 50.2563 16.202ZM44.4355 34.5353C44.3631 35.9497 44.0613 37.3429 43.5417 38.6603C43.0968 39.7596 42.4354 40.7582 41.5969 41.5968C40.7583 42.4353 39.7597 43.0967 38.6605 43.5416C37.3305 44.0322 35.9295 44.3032 34.5125 44.3437H20.4875C19.0705 44.3032 17.6696 44.0322 16.3396 43.5416C15.2028 43.12 14.1764 42.4462 13.3375 41.5707C12.5066 40.7491 11.8653 39.7558 11.4584 38.6603C10.9674 37.3313 10.704 35.929 10.6792 34.5124V20.4874C10.704 19.0708 10.9674 17.6685 11.4584 16.3395C11.88 15.2027 12.5538 14.1763 13.4292 13.3374C14.2554 12.5121 15.2474 11.8716 16.3396 11.4583C17.6696 10.9676 19.0705 10.6967 20.4875 10.6562H34.5125C35.9295 10.6967 37.3305 10.9676 38.6605 11.4583C39.7972 11.8799 40.8237 12.5537 41.6625 13.4291C42.4935 14.2508 43.1348 15.2441 43.5417 16.3395C44.0324 17.6695 44.3033 19.0704 44.3438 20.4874V27.4999C44.3438 32.2208 44.5042 32.702 44.4355 34.5124V34.5353ZM40.7688 17.4853C40.4959 16.7451 40.0657 16.0728 39.5079 15.515C38.95 14.9571 38.2778 14.5269 37.5375 14.2541C36.5211 13.9018 35.4506 13.7311 34.375 13.7499H20.625C19.544 13.7605 18.4733 13.9622 17.4625 14.3458C16.7336 14.6062 16.0685 15.0188 15.5114 15.5562C14.9543 16.0936 14.5179 16.7434 14.2313 17.4624C13.8997 18.4833 13.7371 19.5516 13.75 20.6249V34.3749C13.774 35.4546 13.9753 36.523 14.3459 37.5374C14.6187 38.2777 15.0489 38.9499 15.6068 39.5078C16.1646 40.0656 16.8369 40.4958 17.5771 40.7687C18.5552 41.1271 19.584 41.3282 20.625 41.3645H34.375C35.4561 41.3539 36.5268 41.1522 37.5375 40.7687C38.2778 40.4958 38.95 40.0656 39.5079 39.5078C40.0657 38.9499 40.4959 38.2777 40.7688 37.5374C41.1523 36.5266 41.3541 35.456 41.3646 34.3749V20.6249C41.3642 19.5429 41.1622 18.4704 40.7688 17.4624V17.4853ZM27.5 36.2541C26.3515 36.2541 25.2143 36.0275 24.1534 35.5873C23.0926 35.1471 22.1291 34.5019 21.318 33.6887C20.5069 32.8755 19.8643 31.9102 19.4268 30.8483C18.9894 29.7863 18.7658 28.6484 18.7688 27.4999C18.7688 25.7675 19.2828 24.0741 20.2457 22.634C21.2087 21.1939 22.5772 20.0719 24.1782 19.41C25.7791 18.748 27.5405 18.576 29.2393 18.9157C30.938 19.2553 32.4978 20.0913 33.7212 21.3179C34.9446 22.5445 35.7765 24.1065 36.1117 25.8062C36.4469 27.5058 36.2703 29.2667 35.6042 30.8659C34.9381 32.4651 33.8124 33.8307 32.3698 34.7899C30.9272 35.7491 29.2324 36.2586 27.5 36.2541ZM36.6667 20.4645C36.1601 20.4109 35.6913 20.1717 35.3506 19.793C35.0098 19.4143 34.8213 18.9229 34.8213 18.4135C34.8213 17.904 35.0098 17.4126 35.3506 17.0339C35.6913 16.6552 36.1601 16.416 36.6667 16.3624C37.1733 16.416 37.6421 16.6552 37.9828 17.0339C38.3236 17.4126 38.5121 17.904 38.5121 18.4135C38.5121 18.9229 38.3236 19.4143 37.9828 19.793C37.6421 20.1717 37.1733 20.4109 36.6667 20.4645Z" fill="#808080" fill-opacity="0.74"/>
</svg>
