<svg width="48" height="48" viewBox="0 0 48 48" fill="none" xmlns="http://www.w3.org/2000/svg">
<path fill-rule="evenodd" clip-rule="evenodd" d="M10 2C7.87827 2 5.84344 2.84285 4.34315 4.34315C2.84285 5.84344 2 7.87827 2 10V38C2 40.1217 2.84285 42.1566 4.34315 43.6569C5.84344 45.1571 7.87827 46 10 46H38C40.1217 46 42.1566 45.1571 43.6569 43.6569C45.1571 42.1566 46 40.1217 46 38V10C46 7.87827 45.1571 5.84344 43.6569 4.34315C42.1566 2.84285 40.1217 2 38 2H10ZM9.332 9C9.11306 9.08136 8.91615 9.21273 8.75695 9.38364C8.59775 9.55454 8.48066 9.76027 8.41501 9.98442C8.34935 10.2086 8.33695 10.445 8.37879 10.6747C8.42063 10.9045 8.51556 11.1214 8.656 11.308L19.884 26.208L8.054 38.898L7.966 39H12.06L21.72 28.642L29.144 38.498C29.3162 38.7261 29.5501 38.9003 29.818 39H38.662C38.8806 38.9182 39.0771 38.7865 39.2359 38.6154C39.3946 38.4443 39.5113 38.2386 39.5765 38.0145C39.6418 37.7903 39.6538 37.5541 39.6117 37.3245C39.5696 37.0949 39.4745 36.8784 39.334 36.692L28.106 21.792L40.034 9H35.934L26.274 19.36L18.846 9.504C18.674 9.27512 18.4402 9.10024 18.172 9H9.332ZM31.092 36.096L12.862 11.904H16.9L35.128 36.094L31.092 36.096Z" fill="#808080" fill-opacity="0.74"/>
</svg>
