<svg width="52" height="52" viewBox="0 0 52 52" fill="none" xmlns="http://www.w3.org/2000/svg">
<path d="M45.2834 4.33325H6.71671C6.08461 4.33325 5.4784 4.58435 5.03144 5.03131C4.58447 5.47828 4.33337 6.08449 4.33337 6.71658V45.2832C4.33337 45.9153 4.58447 46.5216 5.03144 46.9685C5.4784 47.4155 6.08461 47.6666 6.71671 47.6666H27.4734V30.8749H21.84V24.3749H27.4734V19.4999C27.3567 18.3554 27.4918 17.1992 27.8693 16.1124C28.2467 15.0256 28.8574 14.0346 29.6584 13.2088C30.4594 12.383 31.4314 11.7425 32.5062 11.3321C33.5809 10.9217 34.7325 10.7515 35.88 10.8333C37.5664 10.8216 39.2521 10.9084 40.9284 11.0933V16.9433H37.4834C34.7534 16.9433 34.2334 18.2433 34.2334 20.1283V24.3099H40.7334L39.8884 30.8099H34.2334V47.6666H45.2834C45.5964 47.6666 45.9063 47.6049 46.1954 47.4852C46.4846 47.3654 46.7473 47.1898 46.9686 46.9685C47.19 46.7472 47.3655 46.4845 47.4853 46.1953C47.6051 45.9062 47.6667 45.5962 47.6667 45.2832V6.71658C47.6667 6.4036 47.6051 6.09368 47.4853 5.80452C47.3655 5.51536 47.19 5.25263 46.9686 5.03131C46.7473 4.81 46.4846 4.63445 46.1954 4.51467C45.9063 4.3949 45.5964 4.33325 45.2834 4.33325Z" fill="#808080" fill-opacity="0.74"/>
</svg>
